<svg width="20" height="20" viewBox="0 0 20 20" fill="none" xmlns="http://www.w3.org/2000/svg">
<g id="002-sun">
<path id="Path" d="M13.5451 6.45511C12.6456 5.55564 11.3757 4.97363 10.0001 4.97363C8.62443 4.97363 7.35459 5.52919 6.45511 6.45511C5.55564 7.35459 4.97363 8.62443 4.97363 10.0001C4.97363 11.3757 5.55564 12.6456 6.45511 13.5451C7.35459 14.4445 8.62443 15.0265 10.0001 15.0265C11.3757 15.0265 12.6456 14.471 13.5451 13.5451C14.4445 12.6456 15.0265 11.3757 15.0265 10.0001C15.0265 8.62443 14.471 7.35459 13.5451 6.45511Z" fill="white"/>
<path id="Path_2" d="M10.0001 3.4127C10.3705 3.4127 10.6879 3.09524 10.6879 2.72487V0.687831C10.6879 0.31746 10.3705 0 10.0001 0C9.62972 0 9.31226 0.31746 9.31226 0.687831V2.72487C9.31226 3.09524 9.62972 3.4127 10.0001 3.4127Z" fill="white"/>
<path id="Path_3" d="M15.6349 5.34386L17.09 3.88883C17.3545 3.62428 17.3545 3.201 17.09 2.93645C16.8254 2.6719 16.4021 2.6719 16.1376 2.93645L14.6825 4.39148C14.418 4.65603 14.418 5.07931 14.6825 5.34386C14.9206 5.60841 15.3439 5.60841 15.6349 5.34386Z" fill="white"/>
<path id="Path_4" d="M19.3123 9.31226H17.2752C16.9049 9.31226 16.5874 9.62972 16.5874 10.0001C16.5874 10.3705 16.9049 10.6879 17.2752 10.6879H19.3123C19.6826 10.6879 20.0001 10.3705 20.0001 10.0001C20.0001 9.62972 19.6826 9.31226 19.3123 9.31226Z" fill="white"/>
<path id="Path_5" d="M15.6086 14.6562C15.344 14.3916 14.9207 14.3916 14.6562 14.6562C14.3916 14.9207 14.3916 15.344 14.6562 15.6086L16.1112 17.0636C16.3758 17.3281 16.799 17.3281 17.0636 17.0636C17.3281 16.799 17.3281 16.3758 17.0636 16.1112L15.6086 14.6562Z" fill="white"/>
<path id="Path_6" d="M10.0001 16.5874C9.62972 16.5874 9.31226 16.9049 9.31226 17.2752V19.3123C9.31226 19.6826 9.62972 20.0001 10.0001 20.0001C10.3705 20.0001 10.6879 19.6826 10.6879 19.3123V17.2752C10.6879 16.9049 10.3705 16.5874 10.0001 16.5874Z" fill="white"/>
<path id="Path_7" d="M4.36511 14.6562L2.91008 16.1112C2.64553 16.3758 2.64553 16.799 2.91008 17.0636C3.17463 17.3281 3.59791 17.3281 3.86246 17.0636L5.31749 15.6086C5.58204 15.344 5.58204 14.9207 5.31749 14.6562C5.07939 14.3916 4.65611 14.3916 4.36511 14.6562Z" fill="white"/>
<path id="Path_8" d="M3.4127 10.0001C3.4127 9.62972 3.09524 9.31226 2.72487 9.31226H0.687831C0.31746 9.31226 0 9.62972 0 10.0001C0 10.3705 0.31746 10.6879 0.687831 10.6879H2.72487C3.09524 10.6879 3.4127 10.3705 3.4127 10.0001Z" fill="white"/>
<path id="Path_9" d="M4.36511 5.34386C4.62966 5.60841 5.05294 5.60841 5.31749 5.34386C5.58204 5.07931 5.58204 4.65603 5.31749 4.39148L3.86246 2.93645C3.59791 2.6719 3.17463 2.6719 2.91008 2.93645C2.64553 3.201 2.64553 3.62428 2.91008 3.88883L4.36511 5.34386Z" fill="white"/>
</g>
</svg>
